<svg xmlns="http://www.w3.org/2000/svg" xmlns:xlink="http://www.w3.org/1999/xlink" id="Layer_1" viewBox="0 0 1360 1250"><style>.st0{fill:#326B99;} .st1{opacity:0.4;} .st2{fill:#5C809A;} .st3{fill:#E4E4CD;} .st4{font-family: &apos;Montserrat&apos;, sans-serif;letter-spacing:2px;text-transform:uppercase;} .st5{font-size:40px;} .st6{letter-spacing:2.8;} .st7{font-family: &apos;Work Sans&apos;, sans-serif;} .st8{fill:none;stroke:#5C809A;stroke-width:2;stroke-miterlimit:10;} .st9{fill:none;stroke:#5C809A;stroke-width:2;stroke-miterlimit:10;stroke-dasharray:12.0395,12.0395;} .st10{fill:#F7F5DF;} .st11{font-size:20px;} .st12{letter-spacing:2;} .st13{fill:none;} .st14{font-size:14px;} .st15{fill:#FFFFFF;} .st16{font-size:12px;} .st17{fill:none;stroke:#E4E4CD;stroke-width:5;stroke-miterlimit:10;} .st18{fill:none;stroke:#E4E4CD;stroke-width:2;stroke-miterlimit:10;} .st19{fill:none;stroke:#E4E4CD;stroke-width:2;stroke-miterlimit:10;stroke-dasharray:5.9663,5.9663;} .st20{fill:none;stroke:#8A3131;stroke-width:3;stroke-miterlimit:10;} .st21{fill:#E5E4D6;} .st22{fill:#326B99;stroke:#E4E4CD;stroke-width:2;stroke-miterlimit:10;} .st23{fill:#326B99;stroke:#E4E4CD;stroke-width:2;stroke-miterlimit:10;stroke-dasharray:6;} .st24{fill:#E5E3DD;} .st25{fill:#8A3131;stroke:#E4E4CD;stroke-width:2;stroke-miterlimit:10;-webkit-transition: 0.3s ease;transition: 0.3s ease;} .st26{fill:none;stroke:#F7F5DF;stroke-width:2;stroke-miterlimit:10;} .interactive-btn{display:block;cursor:pointer;} .interactive-btn:hover .st25 {fill: #6B2828;}</style><path d="M0 0h1360v1250H0V0z" class="st0"/><g class="st1"><ellipse cx="544.3" cy="667.5" class="st2" rx="6.9" ry="6.7"/><ellipse cx="525" cy="667.5" class="st2" rx="6.9" ry="6.7"/><ellipse cx="506.6" cy="667.5" class="st2" rx="6.9" ry="6.7"/><ellipse cx="486.3" cy="667.5" class="st2" rx="6.9" ry="6.7"/><ellipse cx="466.1" cy="667.5" class="st2" rx="6.9" ry="6.7"/><path d="M554.9 648.6c.2-3.7-2.7-6.8-6.5-7s-7.1 2.6-7.3 6.3 2.7 6.8 6.5 7 7.1-2.6 7.3-6.3zm-19.3-1c.2-3.7-2.7-6.8-6.5-7s-7.1 2.6-7.3 6.3 2.7 6.8 6.5 7 7.1-2.6 7.3-6.3zm-18.4-1c.2-3.7-2.7-6.8-6.5-7s-7.1 2.6-7.3 6.3c-.2 3.7 2.7 6.8 6.5 7s7.1-2.6 7.3-6.3zm-20.2-1c.2-3.7-2.7-6.8-6.5-7s-7.1 2.6-7.3 6.3c-.2 3.7 2.7 6.8 6.5 7 3.8.1 7-2.7 7.3-6.3zm-20.3-1.1c.2-3.7-2.7-6.8-6.5-7s-7.1 2.6-7.3 6.3c-.2 3.7 2.7 6.8 6.5 7 3.9.2 7.1-2.6 7.3-6.3zm86.3-14c.4-3.7-2.3-6.9-6.1-7.3-3.8-.4-7.2 2.3-7.6 5.9s2.3 6.9 6.1 7.3 7.1-2.2 7.6-5.9zm-19.3-2c.4-3.7-2.3-6.9-6.1-7.3-3.8-.4-7.2 2.3-7.6 5.9-.4 3.7 2.3 6.9 6.1 7.3s7.2-2.2 7.6-5.9zm-20.1-2.8c.4-3.7-2.3-6.9-6.1-7.3s-7.2 2.3-7.6 5.9c-.4 3.7 2.3 6.9 6.1 7.3s7.2-2.2 7.6-5.9zm-19.2-2.1c.4-3.7-2.3-6.9-6.1-7.3-3.8-.4-7.2 2.3-7.6 5.9-.4 3.7 2.3 6.9 6.1 7.3 3.8.4 7.2-2.2 7.6-5.9zm-21.1-1.2c.4-3.7-2.3-6.9-6.1-7.3s-7.2 2.3-7.6 5.9c-.4 3.7 2.3 6.9 6.1 7.3s7.2-2.2 7.6-5.9zm91-7.8c.7-3.6-1.7-7.1-5.5-7.8-3.7-.7-7.4 1.7-8.1 5.3s1.7 7.1 5.5 7.8 7.4-1.7 8.1-5.3zm-19.9-3.5c.7-3.6-1.7-7.1-5.5-7.8-3.7-.7-7.4 1.7-8.1 5.3s1.7 7.1 5.5 7.8 7.4-1.7 8.1-5.3zm-19.8-4.3c.7-3.6-1.7-7.1-5.5-7.8-3.7-.7-7.4 1.7-8.1 5.3s1.7 7.1 5.5 7.8 7.4-1.7 8.1-5.3zm-20.8-3.6c.7-3.6-1.7-7.1-5.5-7.8-3.7-.7-7.4 1.7-8.1 5.3s1.7 7.1 5.5 7.8c3.7.7 7.3-1.7 8.1-5.3zm-20.9-2.8c.7-3.6-1.7-7.1-5.5-7.8-3.7-.7-7.4 1.7-8.1 5.3s1.7 7.1 5.5 7.8c3.7.6 7.4-1.7 8.1-5.3zm96.2.2c1-3.5-1.1-7.2-4.8-8.2s-7.5 1.1-8.5 4.6 1.1 7.2 4.8 8.2 7.5-1.1 8.5-4.6zm-20.5-6c1-3.5-1.1-7.2-4.8-8.2s-7.5 1.1-8.5 4.6 1.1 7.2 4.8 8.2 7.5-1 8.5-4.6zm-21.2-5.9c1-3.5-1.1-7.2-4.8-8.2s-7.5 1.1-8.5 4.6 1.1 7.2 4.8 8.2c3.7 1.1 7.5-1 8.5-4.6zm-22.3-4.3c1-3.5-1.1-7.2-4.8-8.2s-7.5 1.1-8.5 4.6 1.1 7.2 4.8 8.2 7.5-1 8.5-4.6zm-20.6-3.6c1-3.5-1.1-7.2-4.8-8.2-3.7-1-7.5 1.1-8.5 4.6s1.1 7.2 4.8 8.2c3.7 1.1 7.5-1 8.5-4.6zm102.1 8.2c1-3.5-1.1-7.2-4.8-8.2s-7.5 1.1-8.5 4.6 1.1 7.2 4.8 8.2c3.7 1.1 7.5-1 8.5-4.6zm-21.4-7.7c1-3.5-1.1-7.2-4.8-8.2s-7.5 1.1-8.5 4.6 1.1 7.2 4.8 8.2 7.5-1 8.5-4.6zm-22.2-6.8c1-3.5-1.1-7.2-4.8-8.2s-7.5 1.1-8.5 4.6 1.1 7.2 4.8 8.2c3.7 1.1 7.5-1 8.5-4.6zm-22.3-6.1c1-3.5-1.1-7.2-4.8-8.2s-7.5 1.1-8.5 4.6 1.1 7.2 4.8 8.2 7.5-1 8.5-4.6zm-21.5-5.3c1-3.5-1.1-7.2-4.8-8.2s-7.5 1.1-8.5 4.6 1.1 7.2 4.8 8.2c3.7 1 7.5-1.1 8.5-4.6zm105.6 19.7c1.4-3.4-.3-7.3-3.8-8.7s-7.6.3-9 3.7.3 7.3 3.8 8.7c3.6 1.4 7.6-.3 9-3.7zm0-18.6c1.4-3.4-.3-7.3-3.8-8.7s-7.6.3-9 3.7.3 7.3 3.8 8.7c3.6 1.3 7.6-.3 9-3.7zm-.9-19.5c1.4-3.4-.3-7.3-3.8-8.7s-7.6.3-9 3.7.3 7.3 3.8 8.7c3.5 1.3 7.6-.3 9-3.7zm-.9-19.6c1.4-3.4-.3-7.3-3.8-8.7s-7.6.3-9 3.7.3 7.3 3.8 8.7 7.5-.3 9-3.7zm-1.9-18.6c1.4-3.4-.3-7.3-3.8-8.7-3.5-1.4-7.6.3-9 3.7-1.4 3.4.3 7.3 3.8 8.7 3.6 1.4 7.6-.3 9-3.7zm24.9 71c1.4-3.4-.3-7.3-3.8-8.7s-7.6.3-9 3.7.3 7.3 3.8 8.7 7.6-.3 9-3.7zm0-18.6c1.4-3.4-.3-7.3-3.8-8.7s-7.6.3-9 3.7.3 7.3 3.8 8.7c3.5 1.3 7.6-.3 9-3.7zm-.9-19.6c1.4-3.4-.3-7.3-3.8-8.7s-7.6.3-9 3.7.3 7.3 3.8 8.7 7.5-.3 9-3.7zm0-17.7c1.4-3.4-.3-7.3-3.8-8.7s-7.6.3-9 3.7.3 7.3 3.8 8.7c3.5 1.3 7.5-.3 9-3.7zm.9-19.5c1.4-3.4-.3-7.3-3.8-8.7s-7.6.3-9 3.7c-1.4 3.4.3 7.3 3.8 8.7 3.5 1.3 7.6-.3 9-3.7zm22 75.4c1.4-3.4-.3-7.3-3.8-8.7s-7.6.3-9 3.7.3 7.3 3.8 8.7 7.5-.3 9-3.7zm1-18.6c1.4-3.4-.3-7.3-3.8-8.7s-7.6.3-9 3.7.3 7.3 3.8 8.7c3.5 1.3 7.6-.3 9-3.7zm.1-19.6c1.4-3.4-.3-7.3-3.8-8.7s-7.6.3-9 3.7.3 7.3 3.8 8.7c3.6 1.4 7.6-.3 9-3.7zm0-17.7c1.4-3.4-.3-7.3-3.8-8.7s-7.6.3-9 3.7.3 7.3 3.8 8.7c3.6 1.3 7.6-.3 9-3.7zm.9-19.5c1.4-3.4-.3-7.3-3.8-8.7-3.5-1.4-7.6.3-9 3.7-1.4 3.4.3 7.3 3.8 8.7s7.6-.3 9-3.7zM603.5 572c1.4-3.4-.3-7.3-3.8-8.7s-7.6.3-9 3.7.3 7.3 3.8 8.7c3.6 1.3 7.6-.3 9-3.7zm-23.1-10.1c1.4-3.4-.3-7.3-3.8-8.7s-7.6.3-9 3.7.3 7.3 3.8 8.7c3.6 1.4 7.6-.2 9-3.7zm-2.7-21.3c1.4-3.4-.3-7.3-3.8-8.7s-7.6.3-9 3.7.3 7.3 3.8 8.7 7.5-.2 9-3.7zm-1.9-19.5c1.4-3.4-.3-7.3-3.8-8.7s-7.6.3-9 3.7.3 7.3 3.8 8.7c3.6 1.4 7.6-.3 9-3.7zm24.9 30.2c1.4-3.4-.3-7.3-3.8-8.7s-7.6.3-9 3.7.3 7.3 3.8 8.7 7.6-.3 9-3.7zm-1.9-20.4c1.4-3.4-.3-7.3-3.8-8.7s-7.6.3-9 3.7.3 7.3 3.8 8.7c3.6 1.3 7.6-.3 9-3.7zm-1.8-17.8c1.4-3.4-.3-7.3-3.8-8.7s-7.6.3-9 3.7.3 7.3 3.8 8.7c3.6 1.4 7.6-.3 9-3.7zm-39.9 41.3c1.4-3.4-.3-7.3-3.8-8.7s-7.6.3-9 3.7.3 7.3 3.8 8.7c3.6 1.3 7.6-.3 9-3.7zm-3.6-21.3c1.4-3.4-.3-7.3-3.8-8.7s-7.6.3-9 3.7.3 7.3 3.8 8.7c3.5 1.3 7.5-.3 9-3.7zm-17.1 14.5c1.4-3.4-.3-7.3-3.8-8.7s-7.6.3-9 3.7.3 7.3 3.8 8.7c3.6 1.4 7.6-.3 9-3.7z" class="st2"/><ellipse cx="757.7" cy="667.5" class="st2" rx="6.9" ry="6.7"/><ellipse cx="777" cy="667.5" class="st2" rx="6.9" ry="6.7"/><ellipse cx="795.4" cy="667.5" class="st2" rx="6.9" ry="6.7"/><ellipse cx="815.7" cy="667.5" class="st2" rx="6.9" ry="6.7"/><ellipse cx="835.9" cy="667.5" class="st2" rx="6.9" ry="6.7"/><path d="M747.1 648.6c-.2-3.7 2.7-6.8 6.5-7s7.1 2.6 7.3 6.3-2.7 6.8-6.5 7-7.1-2.6-7.3-6.3zm19.3-1c-.2-3.7 2.7-6.8 6.5-7s7.1 2.6 7.3 6.3-2.7 6.8-6.5 7-7.1-2.6-7.3-6.3zm18.4-1c-.2-3.7 2.7-6.8 6.5-7s7.1 2.6 7.3 6.3-2.7 6.8-6.5 7-7.1-2.6-7.3-6.3zm20.2-1c-.2-3.7 2.7-6.8 6.5-7s7.1 2.6 7.3 6.3-2.7 6.8-6.5 7c-3.8.1-7-2.7-7.3-6.3zm20.3-1.1c-.2-3.7 2.7-6.8 6.5-7s7.1 2.6 7.3 6.3-2.7 6.8-6.5 7c-3.9.2-7.1-2.6-7.3-6.3zm-86.3-14c-.4-3.7 2.3-6.9 6.1-7.3 3.8-.4 7.2 2.3 7.6 5.9s-2.3 6.9-6.1 7.3-7.1-2.2-7.6-5.9zm19.3-2c-.4-3.7 2.3-6.9 6.1-7.3 3.8-.4 7.2 2.3 7.6 5.9.4 3.7-2.3 6.9-6.1 7.3s-7.2-2.2-7.6-5.9zm20.1-2.8c-.4-3.7 2.3-6.9 6.1-7.3s7.2 2.3 7.6 5.9c.4 3.7-2.3 6.9-6.1 7.3s-7.2-2.2-7.6-5.9zm19.2-2.1c-.4-3.7 2.3-6.9 6.1-7.3 3.8-.4 7.2 2.3 7.6 5.9.4 3.7-2.3 6.9-6.1 7.3-3.8.4-7.2-2.2-7.6-5.9zm21.1-1.2c-.4-3.7 2.3-6.9 6.1-7.3s7.2 2.3 7.6 5.9c.4 3.7-2.3 6.9-6.1 7.3s-7.2-2.2-7.6-5.9zm-91-7.8c-.7-3.6 1.7-7.1 5.5-7.8 3.7-.7 7.4 1.7 8.1 5.3s-1.7 7.1-5.5 7.8-7.4-1.7-8.1-5.3zm19.9-3.5c-.7-3.6 1.7-7.1 5.5-7.8 3.7-.7 7.4 1.7 8.1 5.3s-1.7 7.1-5.5 7.8-7.4-1.7-8.1-5.3zm19.8-4.3c-.7-3.6 1.7-7.1 5.5-7.8 3.7-.7 7.4 1.7 8.1 5.3s-1.7 7.1-5.5 7.8-7.4-1.7-8.1-5.3zm20.8-3.6c-.7-3.6 1.7-7.1 5.5-7.8 3.7-.7 7.4 1.7 8.1 5.3s-1.7 7.1-5.5 7.8c-3.7.7-7.3-1.7-8.1-5.3zm20.9-2.8c-.7-3.6 1.7-7.1 5.5-7.8 3.7-.7 7.4 1.7 8.1 5.3s-1.7 7.1-5.5 7.8c-3.7.6-7.4-1.7-8.1-5.3zm-96.2.2c-1-3.5 1.1-7.2 4.8-8.2s7.5 1.1 8.5 4.6-1.1 7.2-4.8 8.2-7.5-1.1-8.5-4.6zm20.5-6c-1-3.5 1.1-7.2 4.8-8.2s7.5 1.1 8.5 4.6-1.1 7.2-4.8 8.2-7.5-1-8.5-4.6zm21.2-5.9c-1-3.5 1.1-7.2 4.8-8.2s7.5 1.1 8.5 4.6-1.1 7.2-4.8 8.2c-3.7 1.1-7.5-1-8.5-4.6zm22.3-4.3c-1-3.5 1.1-7.2 4.8-8.2s7.5 1.1 8.5 4.6-1.1 7.2-4.8 8.2-7.5-1-8.5-4.6zm20.6-3.6c-1-3.5 1.1-7.2 4.8-8.2s7.5 1.1 8.5 4.6-1.1 7.2-4.8 8.2c-3.7 1.1-7.5-1-8.5-4.6zM695.4 589c-1-3.5 1.1-7.2 4.8-8.2s7.5 1.1 8.5 4.6-1.1 7.2-4.8 8.2c-3.7 1.1-7.5-1-8.5-4.6zm21.4-7.7c-1-3.5 1.1-7.2 4.8-8.2s7.5 1.1 8.5 4.6-1.1 7.2-4.8 8.2-7.5-1-8.5-4.6zm22.2-6.8c-1-3.5 1.1-7.2 4.8-8.2s7.5 1.1 8.5 4.6-1.1 7.2-4.8 8.2c-3.7 1.1-7.5-1-8.5-4.6zm22.3-6.1c-1-3.5 1.1-7.2 4.8-8.2s7.5 1.1 8.5 4.6-1.1 7.2-4.8 8.2-7.5-1-8.5-4.6zm21.5-5.3c-1-3.5 1.1-7.2 4.8-8.2s7.5 1.1 8.5 4.6-1.1 7.2-4.8 8.2-7.5-1.1-8.5-4.6zm-105.6 19.7c-1.4-3.4.3-7.3 3.8-8.7s7.6.3 9 3.7-.3 7.3-3.8 8.7c-3.6 1.4-7.6-.3-9-3.7zm0-18.6c-1.4-3.4.3-7.3 3.8-8.7s7.6.3 9 3.7-.3 7.3-3.8 8.7c-3.6 1.3-7.6-.3-9-3.7zm.9-19.5c-1.4-3.4.3-7.3 3.8-8.7s7.6.3 9 3.7-.3 7.3-3.8 8.7c-3.5 1.3-7.6-.3-9-3.7zm.9-19.6c-1.4-3.4.3-7.3 3.8-8.7s7.6.3 9 3.7-.3 7.3-3.8 8.7-7.5-.3-9-3.7zm1.9-18.6c-1.4-3.4.3-7.3 3.8-8.7 3.5-1.4 7.6.3 9 3.7 1.4 3.4-.3 7.3-3.8 8.7-3.6 1.4-7.6-.3-9-3.7zm17.6 65.5c-1.4-3.4.3-7.3 3.8-8.7s7.6.3 9 3.7-.3 7.3-3.8 8.7c-3.6 1.3-7.6-.3-9-3.7zm23.1-10.1c-1.4-3.4.3-7.3 3.8-8.7s7.6.3 9 3.7-.3 7.3-3.8 8.7c-3.6 1.4-7.6-.2-9-3.7zm2.7-21.3c-1.4-3.4.3-7.3 3.8-8.7s7.6.3 9 3.7-.3 7.3-3.8 8.7-7.5-.2-9-3.7zm1.9-19.5c-1.4-3.4.3-7.3 3.8-8.7s7.6.3 9 3.7-.3 7.3-3.8 8.7c-3.6 1.4-7.6-.3-9-3.7zm-24.9 30.2c-1.4-3.4.3-7.3 3.8-8.7s7.6.3 9 3.7-.3 7.3-3.8 8.7-7.6-.3-9-3.7zm1.9-20.4c-1.4-3.4.3-7.3 3.8-8.7s7.6.3 9 3.7-.3 7.3-3.8 8.7c-3.6 1.3-7.6-.3-9-3.7zm1.8-17.8c-1.4-3.4.3-7.3 3.8-8.7s7.6.3 9 3.7-.3 7.3-3.8 8.7c-3.6 1.4-7.6-.3-9-3.7zm39.9 41.3c-1.4-3.4.3-7.3 3.8-8.7s7.6.3 9 3.7-.3 7.3-3.8 8.7c-3.6 1.3-7.6-.3-9-3.7zm3.6-21.3c-1.4-3.4.3-7.3 3.8-8.7s7.6.3 9 3.7-.3 7.3-3.8 8.7c-3.5 1.3-7.5-.3-9-3.7zm17.1 14.5c-1.4-3.4.3-7.3 3.8-8.7s7.6.3 9 3.7-.3 7.3-3.8 8.7c-3.6 1.4-7.6-.3-9-3.7z" class="st2"/></g><g class="st1"><ellipse cx="757.7" cy="711.9" class="st2" rx="6.9" ry="6.7"/><ellipse cx="777" cy="711.9" class="st2" rx="6.9" ry="6.7"/><ellipse cx="795.4" cy="711.9" class="st2" rx="6.9" ry="6.7"/><ellipse cx="815.7" cy="711.9" class="st2" rx="6.9" ry="6.7"/><ellipse cx="835.9" cy="711.9" class="st2" rx="6.9" ry="6.7"/><path d="M747.1 730.8c-.2 3.7 2.7 6.8 6.5 7s7.1-2.6 7.3-6.3-2.7-6.8-6.5-7-7.1 2.6-7.3 6.3zm19.3 1c-.2 3.7 2.7 6.8 6.5 7s7.1-2.6 7.3-6.3-2.7-6.8-6.5-7-7.1 2.6-7.3 6.3zm18.4.9c-.2 3.7 2.7 6.8 6.5 7s7.1-2.6 7.3-6.3-2.7-6.8-6.5-7c-3.8-.1-7.1 2.7-7.3 6.3zm20.2 1.1c-.2 3.7 2.7 6.8 6.5 7s7.1-2.6 7.3-6.3-2.7-6.8-6.5-7-7 2.6-7.3 6.3zm20.3 1.1c-.2 3.7 2.7 6.8 6.5 7s7.1-2.6 7.3-6.3-2.7-6.8-6.5-7c-3.9-.2-7.1 2.6-7.3 6.3zm-86.3 14c-.4 3.7 2.3 6.9 6.1 7.3 3.8.4 7.2-2.3 7.6-5.9.4-3.7-2.3-6.9-6.1-7.3s-7.1 2.2-7.6 5.9zm19.3 1.9c-.4 3.7 2.3 6.9 6.1 7.3s7.2-2.3 7.6-5.9-2.3-6.9-6.1-7.3-7.2 2.3-7.6 5.9zm20.1 2.8c-.4 3.7 2.3 6.9 6.1 7.3 3.8.4 7.2-2.3 7.6-5.9.4-3.7-2.3-6.9-6.1-7.3s-7.2 2.3-7.6 5.9zm19.2 2.1c-.4 3.7 2.3 6.9 6.1 7.3 3.8.4 7.2-2.3 7.6-5.9s-2.3-6.9-6.1-7.3-7.2 2.3-7.6 5.9zm21.1 1.2c-.4 3.7 2.3 6.9 6.1 7.3 3.8.4 7.2-2.3 7.6-5.9.4-3.7-2.3-6.9-6.1-7.3-3.8-.4-7.2 2.3-7.6 5.9zm-91 7.9c-.7 3.6 1.7 7.1 5.5 7.8 3.7.7 7.4-1.7 8.1-5.3s-1.7-7.1-5.5-7.8-7.4 1.6-8.1 5.3zm19.9 3.4c-.7 3.6 1.7 7.1 5.5 7.8 3.7.7 7.4-1.7 8.1-5.3s-1.7-7.1-5.5-7.8c-3.8-.6-7.4 1.7-8.1 5.3zm19.8 4.4c-.7 3.6 1.7 7.1 5.5 7.8 3.7.7 7.4-1.7 8.1-5.3s-1.7-7.1-5.5-7.8-7.4 1.7-8.1 5.3zm20.8 3.6c-.7 3.6 1.7 7.1 5.5 7.8 3.7.7 7.4-1.7 8.1-5.3s-1.7-7.1-5.5-7.8c-3.7-.7-7.3 1.7-8.1 5.3zm20.9 2.8c-.7 3.6 1.7 7.1 5.5 7.8 3.7.7 7.4-1.7 8.1-5.3s-1.7-7.1-5.5-7.8c-3.7-.7-7.4 1.7-8.1 5.3zm-96.2-.2c-1 3.5 1.1 7.2 4.8 8.2s7.5-1.1 8.5-4.6-1.1-7.2-4.8-8.2-7.5 1.1-8.5 4.6zm20.5 5.9c-1 3.5 1.1 7.2 4.8 8.2s7.5-1.1 8.5-4.6-1.1-7.2-4.8-8.2-7.5 1.1-8.5 4.6zm21.2 5.9c-1 3.5 1.1 7.2 4.8 8.2s7.5-1.1 8.5-4.6-1.1-7.2-4.8-8.2-7.5 1.1-8.5 4.6zm22.3 4.3c-1 3.5 1.1 7.2 4.8 8.2s7.5-1.1 8.5-4.6-1.1-7.2-4.8-8.2-7.5 1.1-8.5 4.6zm20.6 3.6c-1 3.5 1.1 7.2 4.8 8.2s7.5-1.1 8.5-4.6-1.1-7.2-4.8-8.2-7.5 1.1-8.5 4.6zm-102.1-8.2c-1 3.5 1.1 7.2 4.8 8.2s7.5-1.1 8.5-4.6-1.1-7.2-4.8-8.2-7.5 1.1-8.5 4.6zm21.4 7.7c-1 3.5 1.1 7.2 4.8 8.2s7.5-1.1 8.5-4.6-1.1-7.2-4.8-8.2-7.5 1.1-8.5 4.6zm22.2 6.8c-1 3.5 1.1 7.2 4.8 8.2s7.5-1.1 8.5-4.6-1.1-7.2-4.8-8.2-7.5 1.1-8.5 4.6zm22.3 6.1c-1 3.5 1.1 7.2 4.8 8.2s7.5-1.1 8.5-4.6-1.1-7.2-4.8-8.2-7.5 1.1-8.5 4.6zm21.5 5.4c-1 3.5 1.1 7.2 4.8 8.2s7.5-1.1 8.5-4.6-1.1-7.2-4.8-8.2-7.5 1-8.5 4.6zm-105.6-19.8c-1.4 3.4.3 7.3 3.8 8.7s7.6-.3 9-3.7-.3-7.3-3.8-8.7c-3.6-1.3-7.6.3-9 3.7zm0 18.7c-1.4 3.4.3 7.3 3.8 8.7s7.6-.3 9-3.7-.3-7.3-3.8-8.7c-3.6-1.4-7.6.3-9 3.7zm.9 19.5c-1.4 3.4.3 7.3 3.8 8.7s7.6-.3 9-3.7-.3-7.3-3.8-8.7-7.6.3-9 3.7zm.9 19.5c-1.4 3.4.3 7.3 3.8 8.7s7.6-.3 9-3.7-.3-7.3-3.8-8.7c-3.5-1.3-7.5.3-9 3.7zm1.9 18.7c-1.4 3.4.3 7.3 3.8 8.7s7.6-.3 9-3.7-.3-7.3-3.8-8.7c-3.6-1.4-7.6.3-9 3.7zm-24.9-71c-1.4 3.4.3 7.3 3.8 8.7s7.6-.3 9-3.7-.3-7.3-3.8-8.7-7.6.3-9 3.7zm0 18.6c-1.4 3.4.3 7.3 3.8 8.7s7.6-.3 9-3.7-.3-7.3-3.8-8.7-7.6.3-9 3.7zm.9 19.5c-1.4 3.4.3 7.3 3.8 8.7s7.6-.3 9-3.7-.3-7.3-3.8-8.7c-3.5-1.3-7.5.3-9 3.7zm0 17.8c-1.4 3.4.3 7.3 3.8 8.7s7.6-.3 9-3.7-.3-7.3-3.8-8.7-7.5.3-9 3.7zm-.9 19.5c-1.4 3.4.3 7.3 3.8 8.7s7.6-.3 9-3.7-.3-7.3-3.8-8.7-7.6.3-9 3.7zm-22-75.4c-1.4 3.4.3 7.3 3.8 8.7s7.6-.3 9-3.7-.3-7.3-3.8-8.7-7.5.3-9 3.7zm-1 18.6c-1.4 3.4.3 7.3 3.8 8.7s7.6-.3 9-3.7-.3-7.3-3.8-8.7-7.6.3-9 3.7zm-.1 19.5c-1.4 3.4.3 7.3 3.8 8.7s7.6-.3 9-3.7-.3-7.3-3.8-8.7-7.6.3-9 3.7zm0 17.8c-1.4 3.4.3 7.3 3.8 8.7s7.6-.3 9-3.7-.3-7.3-3.8-8.7c-3.6-1.4-7.6.3-9 3.7zm-.9 19.5c-1.4 3.4.3 7.3 3.8 8.7s7.6-.3 9-3.7-.3-7.3-3.8-8.7c-3.6-1.4-7.6.3-9 3.7zm66.5-69.9c-1.4 3.4.3 7.3 3.8 8.7s7.6-.3 9-3.7-.3-7.3-3.8-8.7c-3.6-1.4-7.6.3-9 3.7zm23.1 10c-1.4 3.4.3 7.3 3.8 8.7s7.6-.3 9-3.7-.3-7.3-3.8-8.7c-3.6-1.3-7.6.3-9 3.7zm2.7 21.3c-1.4 3.4.3 7.3 3.8 8.7s7.6-.3 9-3.7-.3-7.3-3.8-8.7c-3.5-1.3-7.5.3-9 3.7zm1.9 19.5c-1.4 3.4.3 7.3 3.8 8.7s7.6-.3 9-3.7-.3-7.3-3.8-8.7c-3.6-1.3-7.6.3-9 3.7zm-24.9-30.1c-1.4 3.4.3 7.3 3.8 8.7s7.6-.3 9-3.7-.3-7.3-3.8-8.7-7.6.3-9 3.7zm1.9 20.4c-1.4 3.4.3 7.3 3.8 8.7s7.6-.3 9-3.7-.3-7.3-3.8-8.7c-3.6-1.4-7.6.3-9 3.7zm1.8 17.7c-1.4 3.4.3 7.3 3.8 8.7s7.6-.3 9-3.7-.3-7.3-3.8-8.7c-3.6-1.3-7.6.3-9 3.7zm39.9-41.2c-1.4 3.4.3 7.3 3.8 8.7s7.6-.3 9-3.7-.3-7.3-3.8-8.7c-3.6-1.4-7.6.3-9 3.7zm3.6 21.3c-1.4 3.4.3 7.3 3.8 8.7s7.6-.3 9-3.7-.3-7.3-3.8-8.7-7.5.3-9 3.7zm17.1-14.5c-1.4 3.4.3 7.3 3.8 8.7s7.6-.3 9-3.7-.3-7.3-3.8-8.7c-3.6-1.4-7.6.2-9 3.7z" class="st2"/><ellipse cx="544.3" cy="711.9" class="st2" rx="6.9" ry="6.7"/><ellipse cx="525" cy="711.9" class="st2" rx="6.9" ry="6.7"/><ellipse cx="506.6" cy="711.9" class="st2" rx="6.9" ry="6.7"/><ellipse cx="486.3" cy="711.9" class="st2" rx="6.9" ry="6.7"/><ellipse cx="466.1" cy="711.9" class="st2" rx="6.9" ry="6.7"/><path d="M554.9 730.8c.2 3.7-2.7 6.8-6.5 7s-7.1-2.6-7.3-6.3 2.7-6.8 6.5-7 7.1 2.6 7.3 6.3zm-19.3 1c.2 3.7-2.7 6.8-6.5 7s-7.1-2.6-7.3-6.3 2.7-6.8 6.5-7 7.1 2.6 7.3 6.3zm-18.4.9c.2 3.7-2.7 6.8-6.5 7s-7.1-2.6-7.3-6.3c-.2-3.7 2.7-6.8 6.5-7 3.8-.1 7.1 2.7 7.3 6.3zm-20.2 1.1c.2 3.7-2.7 6.8-6.5 7s-7.1-2.6-7.3-6.3c-.2-3.7 2.7-6.8 6.5-7s7 2.6 7.3 6.3zm-20.3 1.1c.2 3.7-2.7 6.8-6.5 7s-7.1-2.6-7.3-6.3c-.2-3.7 2.7-6.8 6.5-7s7.1 2.6 7.3 6.3zm86.3 14c.4 3.7-2.3 6.9-6.1 7.3-3.8.4-7.2-2.3-7.6-5.9-.4-3.7 2.3-6.9 6.1-7.3s7.1 2.2 7.6 5.9zm-19.3 1.9c.4 3.7-2.3 6.9-6.1 7.3s-7.2-2.3-7.6-5.9 2.3-6.9 6.1-7.3 7.2 2.3 7.6 5.9zm-20.1 2.8c.4 3.7-2.3 6.9-6.1 7.3-3.8.4-7.2-2.3-7.6-5.9-.4-3.7 2.3-6.9 6.1-7.3s7.2 2.3 7.6 5.9zm-19.2 2.1c.4 3.7-2.3 6.9-6.1 7.3s-7.2-2.3-7.6-5.9 2.3-6.9 6.1-7.3 7.2 2.3 7.6 5.9zm-21.1 1.2c.4 3.7-2.3 6.9-6.1 7.3-3.8.4-7.2-2.3-7.6-5.9-.4-3.7 2.3-6.9 6.1-7.3 3.8-.4 7.2 2.3 7.6 5.9zm91 7.9c.7 3.6-1.7 7.1-5.5 7.8-3.7.7-7.4-1.7-8.1-5.3s1.7-7.1 5.5-7.8 7.4 1.6 8.1 5.3zm-19.9 3.4c.7 3.6-1.7 7.1-5.5 7.8-3.7.7-7.4-1.7-8.1-5.3s1.7-7.1 5.5-7.8c3.8-.6 7.4 1.7 8.1 5.3zm-19.8 4.4c.7 3.6-1.7 7.1-5.5 7.8-3.7.7-7.4-1.7-8.1-5.3s1.7-7.1 5.5-7.8 7.4 1.7 8.1 5.3zm-20.8 3.6c.7 3.6-1.7 7.1-5.5 7.8-3.7.7-7.4-1.7-8.1-5.3s1.7-7.1 5.5-7.8c3.7-.7 7.3 1.7 8.1 5.3zm-20.9 2.8c.7 3.6-1.7 7.1-5.5 7.8-3.7.7-7.4-1.7-8.1-5.3s1.7-7.1 5.5-7.8c3.7-.7 7.4 1.7 8.1 5.3zm96.2-.2c1 3.5-1.1 7.2-4.8 8.2s-7.5-1.1-8.5-4.6 1.1-7.2 4.8-8.2 7.5 1.1 8.5 4.6zm-20.5 5.9c1 3.5-1.1 7.2-4.8 8.2s-7.5-1.1-8.5-4.6 1.1-7.2 4.8-8.2 7.5 1.1 8.5 4.6zm-21.2 5.9c1 3.5-1.1 7.2-4.8 8.2s-7.5-1.1-8.5-4.6 1.1-7.2 4.8-8.2 7.5 1.1 8.5 4.6zm-22.3 4.3c1 3.5-1.1 7.2-4.8 8.2s-7.5-1.1-8.5-4.6 1.1-7.2 4.8-8.2 7.5 1.1 8.5 4.6zm-20.6 3.6c1 3.5-1.1 7.2-4.8 8.2-3.7 1-7.5-1.1-8.5-4.6s1.1-7.2 4.8-8.2 7.5 1.1 8.5 4.6zm102.1-8.2c1 3.5-1.1 7.2-4.8 8.2s-7.5-1.1-8.5-4.6 1.1-7.2 4.8-8.2 7.5 1.1 8.5 4.6zm-21.4 7.7c1 3.5-1.1 7.2-4.8 8.2s-7.5-1.1-8.5-4.6 1.1-7.2 4.8-8.2 7.5 1.1 8.5 4.6zm-22.2 6.8c1 3.5-1.1 7.2-4.8 8.2s-7.5-1.1-8.5-4.6 1.1-7.2 4.8-8.2 7.5 1.1 8.5 4.6zm-22.3 6.1c1 3.5-1.1 7.2-4.8 8.2s-7.5-1.1-8.5-4.6 1.1-7.2 4.8-8.2 7.5 1.1 8.5 4.6zm-21.5 5.4c1 3.5-1.1 7.2-4.8 8.2s-7.5-1.1-8.5-4.6 1.1-7.2 4.8-8.2c3.7-1 7.5 1 8.5 4.6zm105.6-19.8c1.4 3.4-.3 7.3-3.8 8.7s-7.6-.3-9-3.7.3-7.3 3.8-8.7c3.6-1.3 7.6.3 9 3.7zm0 18.7c1.4 3.4-.3 7.3-3.8 8.7s-7.6-.3-9-3.7.3-7.3 3.8-8.7c3.6-1.4 7.6.3 9 3.7zm-.9 19.5c1.4 3.4-.3 7.3-3.8 8.7s-7.6-.3-9-3.7.3-7.3 3.8-8.7 7.6.3 9 3.7zm-.9 19.5c1.4 3.4-.3 7.3-3.8 8.7s-7.6-.3-9-3.7.3-7.3 3.8-8.7c3.5-1.3 7.5.3 9 3.7zm-1.9 18.7c1.4 3.4-.3 7.3-3.8 8.7s-7.6-.3-9-3.7.3-7.3 3.8-8.7c3.6-1.4 7.6.3 9 3.7zm-17.6-65.5c1.4 3.4-.3 7.3-3.8 8.7s-7.6-.3-9-3.7.3-7.3 3.8-8.7c3.6-1.4 7.6.3 9 3.7zm-23.1 10c1.4 3.4-.3 7.3-3.8 8.7s-7.6-.3-9-3.7.3-7.3 3.8-8.7c3.6-1.3 7.6.3 9 3.7zm-2.7 21.3c1.4 3.4-.3 7.3-3.8 8.7s-7.6-.3-9-3.7.3-7.3 3.8-8.7c3.5-1.3 7.5.3 9 3.7zm-1.9 19.5c1.4 3.4-.3 7.3-3.8 8.7s-7.6-.3-9-3.7.3-7.3 3.8-8.7c3.6-1.3 7.6.3 9 3.7zm24.9-30.1c1.4 3.4-.3 7.3-3.8 8.7s-7.6-.3-9-3.7.3-7.3 3.8-8.7 7.6.3 9 3.7zm-1.9 20.4c1.4 3.4-.3 7.3-3.8 8.7s-7.6-.3-9-3.7.3-7.3 3.8-8.7c3.6-1.4 7.6.3 9 3.7zm-1.8 17.7c1.4 3.4-.3 7.3-3.8 8.7s-7.6-.3-9-3.7.3-7.3 3.8-8.7c3.6-1.3 7.6.3 9 3.7zM557.1 825c1.4 3.4-.3 7.3-3.8 8.7s-7.6-.3-9-3.7.3-7.3 3.8-8.7c3.6-1.4 7.6.3 9 3.7zm-3.6 21.3c1.4 3.4-.3 7.3-3.8 8.7s-7.6-.3-9-3.7.3-7.3 3.8-8.7 7.5.3 9 3.7zm-17.1-14.5c1.4 3.4-.3 7.3-3.8 8.7s-7.6-.3-9-3.7.3-7.3 3.8-8.7c3.6-1.4 7.6.2 9 3.7z" class="st2"/></g><text transform="matrix(1.08 0 0 1 450.11 171.38)" class="st3 st4 st5 st6">HOW IT WORKS</text><text transform="matrix(1.08 0 0 1 176 266.43)" class="st3 st7 st5 st6">1</text><text transform="matrix(1.08 0 0 1 1091.41 266.43)" class="st3 st7 st5 st6">2</text><path d="M651 292.4v6" class="st8"/><path d="M651 310.4v764.5" class="st9"/><path d="M651 1081v6m397.3-397.3h-6" class="st8"/><path d="M1030.2 689.7H265.7" class="st9"/><path d="M259.7 689.7h-6" class="st8"/><text transform="translate(171 320.24)" class="st10 st4 st11 st12">LAUNCH</text><path d="M171 345h200v32.2H171V345z" class="st13"/><text transform="translate(171 356.91)" class="st10 st4 st14">we’re here to</text><text transform="translate(171 373.71)" class="st10 st4 st14">rebuild congress</text><path d="M171 397.2h216V525H171V397.2z" class="st13"/><text transform="translate(171 405.97)" class="st15 st7 st16">The tech systems used in Congress</text><text transform="translate(171 428.97)" class="st15 st7 st16">are outdated and make staffers’</text><text transform="translate(171 451.97)" class="st15 st7 st16">jobs more difficult for no reason.</text><text transform="translate(171 474.97)" class="st15 st7 st16">We launched the Congressional</text><text transform="translate(171 497.97)" class="st15 st7 st16">Digital Service to start fixing these</text><text transform="translate(171 520.97)" class="st15 st7 st16">systems, one by one.</text><text transform="translate(995.2 319.77)" class="st10 st4 st11 st12">ASSEMBLY</text><path d="M907 345h214.4v32.2H907V345z" class="st13"/><text transform="translate(947.09 356.91)" class="st10 st4 st14">expert teams for</text><text transform="translate(897.49 373.71)" class="st10 st4 st14">frustrating problems</text><path d="M921.4 398h200v127.8h-200V398z" class="st13"/><text transform="translate(942.79 406.76)" class="st15 st7 st16">We pull together the best and</text><text transform="translate(931.69 429.76)" class="st15 st7 st16">brightest on the Hill and in tech</text><text transform="translate(952.09 452.76)" class="st15 st7 st16">to figure out what barriers –</text><text transform="translate(966.09 475.76)" class="st15 st7 st16">bureaucratic, technical, or</text><text transform="translate(929.69 498.76)" class="st15 st7 st16">otherwise – we need to address</text><text transform="translate(994.29 521.76)" class="st15 st7 st16">to solve the problem.</text><text transform="translate(1043.8 864.94)" class="st10 st4 st11 st12">BUILD</text><path d="M916 890.2h200v32.2H916v-32.2z" class="st13"/><text transform="translate(936.69 902.09)" class="st10 st4 st14">test, and refine a</text><text transform="translate(925.19 918.89)" class="st10 st4 st14">software solution</text><path d="M869.7 942.4H1116v104.8H869.7V942.4z" class="st13"/><text transform="translate(892.61 951.15)" class="st15 st7 st16">Our technologists build new software</text><text transform="translate(898.41 974.15)" class="st15 st7 st16">that fixes the underlying system and</text><text transform="translate(899.11 997.15)" class="st15 st7 st16">makes the solution more usable. We</text><text transform="translate(905.21 1020.15)" class="st15 st7 st16">make refinements along the way to</text><text transform="translate(874.21 1043.15)" class="st15 st7 st16">ensure our solution is the best it can be.</text><text transform="translate(171 864.94)" class="st10 st4 st11 st12">DISTRIBUTE</text><path d="M171 890.2h200v32.2H171v-32.2z" class="st13"/><text transform="translate(171 902.09)" class="st10 st4 st14">Free and available</text><text transform="translate(171 918.89)" class="st10 st4 st14">for everyone to use</text><path d="M171 942.4h241.4v81.8H171v-81.8z" class="st13"/><text transform="translate(171 951.15)" class="st15 st7 st16">We make our solutions available to</text><text transform="translate(171 974.15)" class="st15 st7 st16">everyone of Congress. Because we</text><text transform="translate(171 997.15)" class="st15 st7 st16">believe sharing open source solutions</text><text transform="translate(171 1020.15)" class="st15 st7 st16">make things better for everyone.</text><path d="M437.6 511.9c50.9-61.1 127.6-100 213.4-100 153.4 0 277.7 124.3 277.7 277.7S804.4 967.4 651 967.4c-94.4 0-177.8-47.1-227.9-119" class="st17"/><path d="M414.8 835.8c6.1 4.5 14.7 9.3 21.7 11.2l-12.3 3-7.5 10.2c.9-7.2-.2-17.1-1.9-24.4z" class="st3"/><path d="M409.3 826.6c-.5-.9-1-1.7-1.5-2.6" class="st18"/><path d="M405 818.7c-20.3-38.5-31.7-82.4-31.7-129 0-56.2 16.7-108.6 45.4-152.3" class="st19"/><path d="M420.4 534.9c.6-.8 1.1-1.7 1.7-2.5" class="st18"/><path d="M429.1 522.6c-1.6 5.8-2.8 13.7-2.2 19.4l-5.7-8.3-9.7-2.7c5.6-1.3 12.6-5 17.6-8.4z" class="st3"/><path d="M171 279.4h30m888.3 0h30M1086 829.6h30m-943-2.5h30" class="st20"/><path d="M605.4 559l-1.4-1.4 2.1-2.2h-9v-2h9.5l-2.7-3.1 1.4-1.3 4.7 5.3-4.6 4.7zm262.3-6l-1.4-1.4 2.1-2.2h-9v-2h9.6l-2.7-3.2 1.5-1.3 4.6 5.4-4.7 4.7zm-1-181.2l-1.4-1.4 2-2h-8.8v-2h9.7l-2.9-3.4 1.5-1.3 4.6 5.4-4.7 4.7z" class="st21"/><path d="M845.2 428c-11.9 25.2-7.4 56.3 13.5 77.1m-77.2-13.5c25.2-11.9 56.3-7.4 77.1 13.5" class="st18"/><a xlink:href="/the-fix-process/congress/" target="_top"><text transform="translate(714.4 363.11)" class="st10 st4 st16">CONGRESSIONAL</text><text transform="translate(705.3 377.51)" class="st10 st4 st16">MEMBERS &amp; STAFF</text></a><a xlink:href="/the-fix-process/partners/" target="_top"><text transform="translate(712.47 544.32)" class="st10 st4 st16">COLLABORATORS</text><text transform="translate(750.57 558.72)" class="st10 st4 st16">&amp; PARTNERS</text></a><a xlink:href="/the-fix-process/technologists/" target="_top"><text transform="translate(452.06 544.32)" class="st10 st4 st16">CDS</text><text transform="translate(452.06 558.72)" class="st10 st4 st16">TECHNOLOGISTS</text></a><path d="M869.5 925.2c-7.5 4.6-16.4 7.2-25.9 7.2-27.6 0-50-22.4-50-50 0-9.3 2.6-18.1 7-25.5" class="st18"/><path d="M879 917.8c-5.8 1.8-13.6 3.2-19.4 2.8l8.5 5.5 3 9.7c1.2-5.8 4.7-12.9 7.9-18z" class="st3"/><path d="M817.5 839.8c7.6-4.7 16.6-7.4 26.2-7.4 27.6 0 50 22.4 50 50 0 8.7-2.2 16.9-6.2 24.1" class="st18"/><path d="M808 847.3c5.8-1.8 13.6-3.3 19.3-2.9l-8.5-5.4-3.1-9.6c-1.1 5.6-4.5 12.8-7.7 17.9z" class="st3"/><circle cx="926.7" cy="689.4" r="25" class="st22"/><ellipse cx="372.3" cy="689.4" transform="rotate(-5.8 372.49 689.3)" class="st23" rx="25" ry="25"/><path d="M921 697.5h-4.8l7.2-15.7h4.9m1.7 15.7h-4.8l7.2-15.7h4.9" class="st24"/><text transform="translate(962.86 660.67)" class="st10 st4 st16">PROBLEM</text><path d="M190 637.5h150v34H190v-34z" class="st13"/><text transform="translate(190 647.67)" class="st10 st4 st16">Improved Trust,</text><text transform="translate(190 662.07)" class="st10 st4 st16">Capacity, Culture</text><text transform="translate(716.82 838.54)" class="st10 st4 st16">ITERATION</text><circle cx="650.5" cy="967.7" r="25" class="st22"/><path d="M643.2 975.4l3.8-6.2-6.4-2.6 1-3 6.8 1.7.6-7.2h3.2l.6 7.1 6.8-1.6 1 3-6.4 2.6 3.7 6.2-2.6 1.9-4.7-5.7-4.7 5.7-2.7-1.9z" class="st24"/><text transform="translate(539.33 1003.4)" class="st10 st4 st16">SOLUTION</text><path d="M412.3 889.4c22.7-6.1 48-.2 65.8 17.6" class="st18"/><path d="M400.9 893.5c6.1.1 13.9 1.1 19.3 3.3l-6.4-7.8.1-10.1c-2.9 5-8.3 10.8-13 14.6z" class="st3"/><path d="M457.4 841.2c-6.1 22.7-.2 48 17.6 65.8" class="st18"/><path d="M461.6 829.9c-3.9 4.7-9.6 10.1-14.7 13l10.1-.1 7.8 6.4c-2.1-5.4-3.1-13.3-3.2-19.3z" class="st3"/><text transform="translate(481.07 838.54)" class="st10 st4 st16">CONGRESS</text><a xlink:href="/the-fix-process/technologists/" target="_top" class="interactive-btn"><circle cx="454.1" cy="492.6" r="25" class="st25"/><circle cx="445.9" cy="487.7" r="3.5" class="st26"/><path d="M445.9 495c-1.6 0-3 .7-3.7 1.8l-1.3 2.2h10l-1.3-2.2c-.7-1.1-2.1-1.8-3.7-1.8z" class="st26"/><circle cx="462.3" cy="487.7" r="3.5" class="st26"/><path d="M462.3 495c-1.6 0-3 .7-3.7 1.8l-1.3 2.2h10l-1.3-2.2c-.7-1.1-2.1-1.8-3.7-1.8z" class="st26"/></a><a xlink:href="/the-fix-process/partners/" target="_top" class="interactive-btn"><ellipse cx="781.6" cy="491.6" transform="rotate(-45 781.6 491.6)" class="st25" rx="25" ry="25"/><circle cx="773" cy="487.1" r="3.5" class="st26"/><path d="M773 494.3c-1.6 0-3 .7-3.7 1.8l-1.3 2.2h10l-1.3-2.2c-.6-1.1-2.1-1.8-3.7-1.8z" class="st26"/><circle cx="789.4" cy="487.1" r="3.5" class="st26"/><path d="M789.4 494.3c-1.6 0-3 .7-3.7 1.8l-1.3 2.2h10l-1.3-2.2c-.6-1.1-2.1-1.8-3.7-1.8z" class="st26"/></a><a xlink:href="/the-fix-process/congress/" target="_top" class="interactive-btn"><ellipse cx="845.1" cy="426" transform="rotate(-45 845.11 426)" class="st25" rx="25" ry="25"/><circle cx="836.6" cy="421.4" r="3.5" class="st26"/><path d="M836.6 428.6c-1.6 0-3 .7-3.7 1.8l-1.3 2.2h10l-1.3-2.2c-.6-1.1-2.1-1.8-3.7-1.8z" class="st26"/><circle cx="853" cy="421.4" r="3.5" class="st26"/><path d="M853 428.6c-1.6 0-3 .7-3.7 1.8l-1.3 2.2h10l-1.3-2.2c-.7-1.1-2.1-1.8-3.7-1.8z" class="st26"/></a><path d="M372.6 697.1h-4.8l7.2-15.7h4.8" class="st24"/><path d="M367.8 697.1h4.8l-4.3-6.7h-4.8" class="st24"/><text transform="matrix(1.08 0 0 1 1088.23 816.63)" class="st3 st7 st5 st6">3</text><path d="M1086.1 829.6h30" class="st20"/><text transform="matrix(1.08 0 0 1 173.89 814.21)" class="st3 st7 st5 st6">4</text><path d="M173.8 827.2h30" class="st20"/></svg>
