<svg xmlns="http://www.w3.org/2000/svg" xmlns:xlink="http://www.w3.org/1999/xlink" viewBox="0 0 254.5 263.14"><defs><style>.cls-1{fill:#b22e2e;}.cls-2,.cls-8{fill:#326b8c;}.cls-3{fill:#f7f6df;}.cls-4{fill:none;stroke:#b22e2e;stroke-miterlimit:10;stroke-width:4px;}.cls-5{opacity:0.4;}.cls-6{fill:#bdbdbd;}.cls-7{font-size:10.68px;fill:#e9e3da;}.cls-7,.cls-8{font-family:Montserrat-Regular, Montserrat;}.cls-8{font-size:10.03px;}</style><symbol id="Flag_2" data-name="Flag 2" viewBox="0 0 338 130"><path d="M198.98 130H159L218.82 0H259l-60.02 130zm78.83 0H238L297.92 0H338l-60.19 130z" class="cls-1"/><path d="M119.84 130H0L60.16 0H180l-60.16 130z" class="cls-2"/><path d="M90.47 51.12l5.66-9.34-9.64-4L88 33.24l10.13 2.48L99 25h4.87l.89 10.63L115 33.24l1.49 4.57-9.64 4 5.56 9.34-3.86 2.85-7.05-8.54L94.45 54zm-23 51l5.66-9.34-9.64-4L65 84.24l10.13 2.48L76 76h4.87l.89 10.63L92 84.24l1.49 4.57-9.64 4 5.56 9.34-3.86 2.85-7.05-8.54-7.05 8.54z" class="cls-3"/></symbol></defs><g id="Layer_2" data-name="Layer 2"><g id="Home"><circle cx="127.25" cy="133.96" r="125.25" class="cls-4"/><g class="cls-5"><ellipse cx="83.36" cy="123.92" class="cls-6" rx="2.84" ry="2.74"/><ellipse cx="75.41" cy="123.92" class="cls-6" rx="2.84" ry="2.74"/><ellipse cx="67.83" cy="123.92" class="cls-6" rx="2.84" ry="2.74"/><ellipse cx="59.5" cy="123.92" class="cls-6" rx="2.84" ry="2.74"/><ellipse cx="51.16" cy="123.92" class="cls-6" rx="2.84" ry="2.74"/><path d="M87.69 116.15a2.84 2.84 0 1 0-3 2.59 2.78 2.78 0 0 0 3-2.59zm-7.94-.42a2.84 2.84 0 1 0-3 2.59 2.78 2.78 0 0 0 3-2.59zm-7.57-.4a2.84 2.84 0 1 0-3 2.59 2.78 2.78 0 0 0 3-2.59zm-8.32-.44a2.84 2.84 0 1 0-3 2.59 2.78 2.78 0 0 0 3-2.59zm-8.32-.44a2.84 2.84 0 1 0-3 2.59 2.78 2.78 0 0 0 3-2.59zM91 108.71a2.77 2.77 0 0 0-2.52-3 2.82 2.82 0 0 0-3.13 2.43 2.77 2.77 0 0 0 2.52 3 2.82 2.82 0 0 0 3.13-2.43zm-7.89-.82a2.77 2.77 0 0 0-2.52-3 2.82 2.82 0 0 0-3.13 2.43 2.77 2.77 0 0 0 2.52 3 2.82 2.82 0 0 0 3.13-2.43zm-8.29-1.15a2.77 2.77 0 0 0-2.52-3 2.82 2.82 0 0 0-3.13 2.43 2.77 2.77 0 0 0 2.52 3 2.82 2.82 0 0 0 3.13-2.43zm-7.91-.86a2.77 2.77 0 0 0-2.52-3 2.82 2.82 0 0 0-3.13 2.43 2.77 2.77 0 0 0 2.52 3 2.82 2.82 0 0 0 3.13-2.43zm-8.66-.49a2.77 2.77 0 0 0-2.52-3 2.82 2.82 0 0 0-3.13 2.43 2.77 2.77 0 0 0 2.52 3 2.82 2.82 0 0 0 3.13-2.43zm37.46-3.23A2.75 2.75 0 0 0 93.45 99a2.84 2.84 0 0 0-3.32 2.18 2.75 2.75 0 0 0 2.26 3.2 2.84 2.84 0 0 0 3.32-2.22zm-8.2-1.43a2.75 2.75 0 0 0-2.26-3.2 2.84 2.84 0 0 0-3.32 2.18 2.75 2.75 0 0 0 2.26 3.2 2.84 2.84 0 0 0 3.32-2.18zm-8.17-1.79a2.75 2.75 0 0 0-2.26-3.2 2.84 2.84 0 0 0-3.32 2.18 2.75 2.75 0 0 0 2.26 3.2 2.84 2.84 0 0 0 3.32-2.18zm-8.56-1.48a2.75 2.75 0 0 0-2.26-3.2 2.84 2.84 0 0 0-3.32 2.18 2.75 2.75 0 0 0 2.26 3.2 2.84 2.84 0 0 0 3.32-2.18zm-8.6-1.17a2.75 2.75 0 0 0-2.26-3.2 2.84 2.84 0 0 0-3.32 2.18 2.75 2.75 0 0 0 2.26 3.2 2.84 2.84 0 0 0 3.32-2.18zm39.6.09a2.73 2.73 0 0 0-2-3.37 2.86 2.86 0 0 0-3.5 1.91 2.73 2.73 0 0 0 2 3.37 2.86 2.86 0 0 0 3.5-1.91zm-8.42-2.44a2.73 2.73 0 0 0-2-3.37 2.86 2.86 0 0 0-3.5 1.91 2.73 2.73 0 0 0 2 3.37 2.86 2.86 0 0 0 3.5-1.91zm-8.75-2.42a2.73 2.73 0 0 0-2-3.37 2.86 2.86 0 0 0-3.5 1.91 2.73 2.73 0 0 0 2 3.37 2.86 2.86 0 0 0 3.5-1.91zm-9.17-1.78a2.73 2.73 0 0 0-2-3.37A2.86 2.86 0 0 0 70 88.28a2.73 2.73 0 0 0 2 3.37 2.86 2.86 0 0 0 3.44-1.91zM67 88.26a2.73 2.73 0 0 0-2-3.37 2.86 2.86 0 0 0-3.5 1.91 2.73 2.73 0 0 0 2 3.37 2.86 2.86 0 0 0 3.5-1.91zm42 3.38a2.73 2.73 0 0 0-2-3.37 2.86 2.86 0 0 0-3.5 1.91 2.73 2.73 0 0 0 2 3.37 2.86 2.86 0 0 0 3.5-1.91zm-8.83-3.18a2.73 2.73 0 0 0-2-3.37A2.86 2.86 0 0 0 94.7 87a2.73 2.73 0 0 0 2 3.37 2.86 2.86 0 0 0 3.47-1.91zM91 85.67a2.73 2.73 0 0 0-2-3.37 2.86 2.86 0 0 0-3.5 1.91 2.73 2.73 0 0 0 2 3.37 2.86 2.86 0 0 0 3.5-1.91zm-9.12-2.51a2.73 2.73 0 0 0-2-3.37 2.86 2.86 0 0 0-3.5 1.91 2.73 2.73 0 0 0 2 3.37 2.86 2.86 0 0 0 3.5-1.91zM73 81a2.73 2.73 0 0 0-2-3.37 2.86 2.86 0 0 0-3.5 1.91 2.73 2.73 0 0 0 2 3.37A2.86 2.86 0 0 0 73 81zm43.47 8.08a2.71 2.71 0 0 0-1.58-3.56A2.88 2.88 0 0 0 111.2 87a2.71 2.71 0 0 0 1.58 3.56 2.88 2.88 0 0 0 3.69-1.48zm0-7.67a2.71 2.71 0 0 0-1.58-3.56 2.88 2.88 0 0 0-3.7 1.52 2.71 2.71 0 0 0 1.58 3.56 2.88 2.88 0 0 0 3.7-1.52zm-.38-8.03a2.71 2.71 0 0 0-1.58-3.56 2.88 2.88 0 0 0-3.7 1.52 2.71 2.71 0 0 0 1.58 3.56 2.88 2.88 0 0 0 3.7-1.52zm-.38-8.04a2.71 2.71 0 0 0-1.58-3.56 2.88 2.88 0 0 0-3.7 1.52 2.71 2.71 0 0 0 1.57 3.56 2.88 2.88 0 0 0 3.71-1.52zm-.71-7.67a2.71 2.71 0 0 0-1.58-3.56 2.88 2.88 0 0 0-3.7 1.52 2.71 2.71 0 0 0 1.58 3.56 2.88 2.88 0 0 0 3.7-1.52zm10.18 29.22a2.71 2.71 0 0 0-1.58-3.56 2.88 2.88 0 0 0-3.7 1.52 2.71 2.71 0 0 0 1.58 3.56 2.88 2.88 0 0 0 3.7-1.52zm0-7.67a2.71 2.71 0 0 0-1.58-3.56 2.88 2.88 0 0 0-3.7 1.52 2.71 2.71 0 0 0 1.58 3.56 2.88 2.88 0 0 0 3.7-1.52zm-.38-8.04a2.71 2.71 0 0 0-1.58-3.56 2.88 2.88 0 0 0-3.7 1.52 2.71 2.71 0 0 0 1.58 3.56 2.88 2.88 0 0 0 3.7-1.52zm0-7.3a2.71 2.71 0 0 0-1.58-3.56 2.88 2.88 0 0 0-3.7 1.52 2.71 2.71 0 0 0 1.58 3.56 2.88 2.88 0 0 0 3.7-1.52zm.38-8.04a2.71 2.71 0 0 0-1.58-3.56 2.88 2.88 0 0 0-3.7 1.52 2.71 2.71 0 0 0 1.58 3.56 2.88 2.88 0 0 0 3.7-1.52zm9.05 31.05a2.71 2.71 0 0 0-1.58-3.56 2.88 2.88 0 0 0-3.7 1.52 2.71 2.71 0 0 0 1.58 3.56 2.88 2.88 0 0 0 3.7-1.52zm.42-7.67a2.71 2.71 0 0 0-1.58-3.56 2.88 2.88 0 0 0-3.7 1.52 2.71 2.71 0 0 0 1.63 3.56 2.88 2.88 0 0 0 3.65-1.52zm.05-8.04a2.71 2.71 0 0 0-1.58-3.56 2.88 2.88 0 0 0-3.7 1.52A2.71 2.71 0 0 0 131 72.7a2.88 2.88 0 0 0 3.7-1.52zm0-7.3a2.71 2.71 0 0 0-1.58-3.56 2.88 2.88 0 0 0-3.7 1.52A2.71 2.71 0 0 0 131 65.4a2.88 2.88 0 0 0 3.7-1.52zm.38-8.04a2.71 2.71 0 0 0-1.58-3.56 2.88 2.88 0 0 0-3.7 1.52 2.71 2.71 0 0 0 1.58 3.56 2.88 2.88 0 0 0 3.7-1.52zm-27.37 28.77a2.71 2.71 0 0 0-1.58-3.56 2.88 2.88 0 0 0-3.7 1.52 2.71 2.71 0 0 0 1.57 3.57 2.88 2.88 0 0 0 3.71-1.53zm-9.5-4.12a2.71 2.71 0 0 0-1.58-3.56 2.88 2.88 0 0 0-3.7 1.52A2.71 2.71 0 0 0 94.51 82a2.88 2.88 0 0 0 3.7-1.51zm-1.14-8.76a2.71 2.71 0 0 0-1.58-3.56 2.88 2.88 0 0 0-3.7 1.52 2.71 2.71 0 0 0 1.58 3.56 2.88 2.88 0 0 0 3.7-1.52zm-.75-8.04a2.71 2.71 0 0 0-1.58-3.56A2.88 2.88 0 0 0 91 61.65a2.71 2.71 0 0 0 1.58 3.56 2.88 2.88 0 0 0 3.74-1.52zm10.22 12.42a2.71 2.71 0 0 0-1.54-3.56 2.88 2.88 0 0 0-3.7 1.52 2.71 2.71 0 0 0 1.58 3.56 2.88 2.88 0 0 0 3.66-1.52zm-.75-8.4a2.71 2.71 0 0 0-1.58-3.56 2.88 2.88 0 0 0-3.7 1.52 2.71 2.71 0 0 0 1.58 3.56 2.88 2.88 0 0 0 3.7-1.52zM105 60.4a2.71 2.71 0 0 0-1.58-3.56 2.88 2.88 0 0 0-3.7 1.52 2.71 2.71 0 0 0 1.58 3.56 2.88 2.88 0 0 0 3.7-1.52zM88.63 77.37a2.71 2.71 0 0 0-1.58-3.56 2.88 2.88 0 0 0-3.7 1.52 2.71 2.71 0 0 0 1.58 3.56 2.88 2.88 0 0 0 3.7-1.52zm-1.52-8.76A2.71 2.71 0 0 0 85.54 65a2.88 2.88 0 0 0-3.7 1.52 2.71 2.71 0 0 0 1.58 3.56 2.88 2.88 0 0 0 3.69-1.47zm-7.02 5.98A2.71 2.71 0 0 0 78.52 71a2.88 2.88 0 0 0-3.7 1.52 2.71 2.71 0 0 0 1.58 3.56 2.88 2.88 0 0 0 3.69-1.49z" class="cls-6"/><ellipse cx="171.14" cy="123.92" class="cls-6" rx="2.84" ry="2.74"/><ellipse cx="179.09" cy="123.92" class="cls-6" rx="2.84" ry="2.74"/><ellipse cx="186.67" cy="123.92" class="cls-6" rx="2.84" ry="2.74"/><ellipse cx="195" cy="123.92" class="cls-6" rx="2.84" ry="2.74"/><ellipse cx="203.34" cy="123.92" class="cls-6" rx="2.84" ry="2.74"/><path d="M166.81 116.15a2.84 2.84 0 1 1 3 2.59 2.78 2.78 0 0 1-3-2.59zm7.94-.42a2.84 2.84 0 1 1 3 2.59 2.78 2.78 0 0 1-3-2.59zm7.57-.4a2.84 2.84 0 1 1 3 2.59 2.78 2.78 0 0 1-3-2.59zm8.32-.44a2.84 2.84 0 1 1 3 2.59 2.78 2.78 0 0 1-3-2.59zm8.36-.44a2.84 2.84 0 1 1 3 2.59 2.78 2.78 0 0 1-3-2.59zm-35.52-5.74a2.77 2.77 0 0 1 2.52-3 2.82 2.82 0 0 1 3.13 2.43 2.77 2.77 0 0 1-2.52 3 2.82 2.82 0 0 1-3.13-2.43zm7.91-.82a2.77 2.77 0 0 1 2.52-3 2.82 2.82 0 0 1 3.09 2.41 2.77 2.77 0 0 1-2.52 3 2.82 2.82 0 0 1-3.09-2.41zm8.29-1.15a2.77 2.77 0 0 1 2.52-3 2.82 2.82 0 0 1 3.13 2.43 2.77 2.77 0 0 1-2.52 3 2.82 2.82 0 0 1-3.13-2.43zm7.91-.86a2.77 2.77 0 0 1 2.52-3 2.82 2.82 0 0 1 3.13 2.43 2.77 2.77 0 0 1-2.52 3 2.82 2.82 0 0 1-3.13-2.43zm8.66-.49a2.77 2.77 0 0 1 2.52-3 2.82 2.82 0 0 1 3.13 2.43 2.77 2.77 0 0 1-2.52 3 2.82 2.82 0 0 1-3.13-2.43zm-37.45-3.23a2.75 2.75 0 0 1 2.26-3.2 2.84 2.84 0 0 1 3.32 2.18 2.75 2.75 0 0 1-2.26 3.2 2.84 2.84 0 0 1-3.32-2.18zm8.2-1.43a2.75 2.75 0 0 1 2.26-3.2 2.84 2.84 0 0 1 3.32 2.18 2.75 2.75 0 0 1-2.26 3.2 2.84 2.84 0 0 1-3.32-2.18zm8.16-1.79a2.75 2.75 0 0 1 2.26-3.2 2.84 2.84 0 0 1 3.32 2.18 2.75 2.75 0 0 1-2.26 3.2 2.84 2.84 0 0 1-3.32-2.18zm8.56-1.48a2.75 2.75 0 0 1 2.26-3.2 2.84 2.84 0 0 1 3.32 2.18 2.75 2.75 0 0 1-2.26 3.2 2.84 2.84 0 0 1-3.32-2.18zm8.6-1.17a2.75 2.75 0 0 1 2.26-3.2 2.84 2.84 0 0 1 3.32 2.18 2.75 2.75 0 0 1-2.26 3.2 2.84 2.84 0 0 1-3.32-2.18zm-39.6.09a2.73 2.73 0 0 1 2-3.37 2.86 2.86 0 0 1 3.5 1.91 2.73 2.73 0 0 1-2 3.37 2.86 2.86 0 0 1-3.5-1.91zm8.43-2.44a2.73 2.73 0 0 1 2-3.37 2.86 2.86 0 0 1 3.5 1.91 2.73 2.73 0 0 1-2 3.37 2.86 2.86 0 0 1-3.5-1.91zm8.74-2.42a2.73 2.73 0 0 1 2-3.37 2.86 2.86 0 0 1 3.5 1.91 2.73 2.73 0 0 1-2 3.37 2.86 2.86 0 0 1-3.5-1.91zm9.17-1.78a2.73 2.73 0 0 1 2-3.37 2.86 2.86 0 0 1 3.5 1.91 2.73 2.73 0 0 1-2 3.37 2.86 2.86 0 0 1-3.5-1.91zm8.47-1.48a2.73 2.73 0 0 1 2-3.37A2.86 2.86 0 0 1 193 86.8a2.73 2.73 0 0 1-2 3.37 2.86 2.86 0 0 1-3.47-1.91zm-42.01 3.38a2.73 2.73 0 0 1 2-3.37 2.86 2.86 0 0 1 3.5 1.91 2.73 2.73 0 0 1-2 3.37 2.86 2.86 0 0 1-3.5-1.91zm8.81-3.18a2.73 2.73 0 0 1 2-3.37A2.86 2.86 0 0 1 159.8 87a2.73 2.73 0 0 1-2 3.37 2.86 2.86 0 0 1-3.47-1.91zm9.12-2.79a2.73 2.73 0 0 1 2-3.37 2.86 2.86 0 0 1 3.5 1.91 2.73 2.73 0 0 1-2 3.37 2.86 2.86 0 0 1-3.5-1.91zm9.17-2.51a2.73 2.73 0 0 1 2-3.37 2.86 2.86 0 0 1 3.5 1.91 2.73 2.73 0 0 1-2 3.37 2.86 2.86 0 0 1-3.5-1.91zm8.85-2.16a2.73 2.73 0 0 1 2-3.37 2.86 2.86 0 0 1 3.5 1.91 2.73 2.73 0 0 1-2 3.37 2.86 2.86 0 0 1-3.5-1.91zM138 89.08a2.71 2.71 0 0 1 1.58-3.56A2.88 2.88 0 0 1 143.3 87a2.71 2.71 0 0 1-1.58 3.56 2.88 2.88 0 0 1-3.72-1.48zm0-7.67a2.71 2.71 0 0 1 1.58-3.56 2.88 2.88 0 0 1 3.7 1.52 2.71 2.71 0 0 1-1.58 3.56 2.88 2.88 0 0 1-3.7-1.52zm.41-8.03a2.71 2.71 0 0 1 1.59-3.57 2.88 2.88 0 0 1 3.7 1.52 2.71 2.71 0 0 1-1.58 3.56 2.88 2.88 0 0 1-3.71-1.51zm.38-8.04a2.71 2.71 0 0 1 1.58-3.56 2.88 2.88 0 0 1 3.7 1.52 2.71 2.71 0 0 1-1.58 3.56 2.88 2.88 0 0 1-3.7-1.52zm.76-7.67a2.71 2.71 0 0 1 1.58-3.56 2.88 2.88 0 0 1 3.7 1.52 2.71 2.71 0 0 1-1.58 3.56 2.88 2.88 0 0 1-3.7-1.52zm7.24 26.94a2.71 2.71 0 0 1 1.58-3.56 2.88 2.88 0 0 1 3.7 1.52 2.71 2.71 0 0 1-1.58 3.56 2.88 2.88 0 0 1-3.7-1.52zm9.5-4.12a2.71 2.71 0 0 1 1.58-3.56 2.88 2.88 0 0 1 3.7 1.52A2.71 2.71 0 0 1 160 82a2.88 2.88 0 0 1-3.71-1.51zm1.14-8.76a2.71 2.71 0 0 1 1.57-3.57 2.88 2.88 0 0 1 3.7 1.52 2.71 2.71 0 0 1-1.58 3.56 2.88 2.88 0 0 1-3.69-1.51zm.76-8.04a2.71 2.71 0 0 1 1.58-3.56 2.88 2.88 0 0 1 3.7 1.52 2.71 2.71 0 0 1-1.58 3.56 2.88 2.88 0 0 1-3.7-1.52zM148 76.11a2.71 2.71 0 0 1 1.58-3.56 2.88 2.88 0 0 1 3.7 1.52 2.71 2.71 0 0 1-1.58 3.56 2.88 2.88 0 0 1-3.7-1.52zm.72-8.4a2.71 2.71 0 0 1 1.58-3.56 2.88 2.88 0 0 1 3.7 1.52 2.71 2.71 0 0 1-1.58 3.56 2.88 2.88 0 0 1-3.7-1.52zm.75-7.31a2.71 2.71 0 0 1 1.58-3.56 2.88 2.88 0 0 1 3.7 1.52 2.71 2.71 0 0 1-1.58 3.56 2.88 2.88 0 0 1-3.7-1.52zm16.4 16.97a2.71 2.71 0 0 1 1.58-3.56 2.88 2.88 0 0 1 3.7 1.52 2.71 2.71 0 0 1-1.58 3.56 2.88 2.88 0 0 1-3.7-1.52zm1.52-8.76A2.71 2.71 0 0 1 169 65a2.88 2.88 0 0 1 3.7 1.52 2.71 2.71 0 0 1-1.58 3.56 2.88 2.88 0 0 1-3.73-1.47zm7.02 5.98A2.71 2.71 0 0 1 176 71a2.88 2.88 0 0 1 3.7 1.52 2.71 2.71 0 0 1-1.58 3.56 2.88 2.88 0 0 1-3.71-1.49z" class="cls-6"/></g><g class="cls-5"><ellipse cx="171.14" cy="142.19" class="cls-6" rx="2.84" ry="2.74"/><ellipse cx="179.09" cy="142.19" class="cls-6" rx="2.84" ry="2.74"/><ellipse cx="186.67" cy="142.19" class="cls-6" rx="2.84" ry="2.74"/><ellipse cx="195" cy="142.19" class="cls-6" rx="2.84" ry="2.74"/><ellipse cx="203.34" cy="142.19" class="cls-6" rx="2.84" ry="2.74"/><path d="M166.81 150a2.84 2.84 0 1 0 3-2.59 2.78 2.78 0 0 0-3 2.59zm7.94.38a2.84 2.84 0 1 0 3-2.59 2.78 2.78 0 0 0-3 2.59zm7.57.39a2.84 2.84 0 1 0 3-2.59 2.78 2.78 0 0 0-3 2.59zm8.32.44a2.84 2.84 0 1 0 3-2.59 2.78 2.78 0 0 0-3 2.59zm8.36.44a2.84 2.84 0 1 0 3-2.59 2.78 2.78 0 0 0-3 2.59zm-35.52 5.75a2.77 2.77 0 0 0 2.52 3 2.82 2.82 0 0 0 3.13-2.43 2.77 2.77 0 0 0-2.52-3 2.82 2.82 0 0 0-3.13 2.43zm7.91.82a2.77 2.77 0 0 0 2.52 3 2.82 2.82 0 0 0 3.13-2.43 2.77 2.77 0 0 0-2.52-3 2.82 2.82 0 0 0-3.13 2.43zm8.29 1.15a2.77 2.77 0 0 0 2.52 3 2.82 2.82 0 0 0 3.13-2.43 2.77 2.77 0 0 0-2.52-3 2.82 2.82 0 0 0-3.13 2.43zm7.91.86a2.77 2.77 0 0 0 2.52 3 2.82 2.82 0 0 0 3.13-2.43 2.77 2.77 0 0 0-2.52-3 2.82 2.82 0 0 0-3.13 2.43zm8.66.49a2.77 2.77 0 0 0 2.52 3 2.82 2.82 0 0 0 3.13-2.43 2.77 2.77 0 0 0-2.52-3 2.82 2.82 0 0 0-3.13 2.43zm-37.45 3.22a2.75 2.75 0 0 0 2.26 3.2 2.84 2.84 0 0 0 3.32-2.18 2.75 2.75 0 0 0-2.26-3.2 2.84 2.84 0 0 0-3.32 2.18zm8.2 1.44a2.75 2.75 0 0 0 2.26 3.2 2.84 2.84 0 0 0 3.32-2.18 2.75 2.75 0 0 0-2.26-3.2 2.84 2.84 0 0 0-3.32 2.18zm8.16 1.79a2.75 2.75 0 0 0 2.26 3.2 2.84 2.84 0 0 0 3.32-2.18 2.75 2.75 0 0 0-2.26-3.2 2.84 2.84 0 0 0-3.32 2.18zm8.56 1.47a2.75 2.75 0 0 0 2.26 3.2 2.84 2.84 0 0 0 3.32-2.18 2.75 2.75 0 0 0-2.26-3.2 2.84 2.84 0 0 0-3.32 2.18zm8.6 1.17a2.75 2.75 0 0 0 2.26 3.2 2.84 2.84 0 0 0 3.32-2.18 2.75 2.75 0 0 0-2.26-3.2 2.84 2.84 0 0 0-3.32 2.18zm-39.6-.09a2.73 2.73 0 0 0 2 3.37 2.86 2.86 0 0 0 3.5-1.91 2.73 2.73 0 0 0-2-3.37 2.86 2.86 0 0 0-3.5 1.91zm8.43 2.44a2.73 2.73 0 0 0 2 3.37 2.86 2.86 0 0 0 3.5-1.91 2.73 2.73 0 0 0-2-3.37 2.86 2.86 0 0 0-3.5 1.91zm8.74 2.43a2.73 2.73 0 0 0 2 3.37 2.86 2.86 0 0 0 3.5-1.91 2.73 2.73 0 0 0-2-3.37 2.86 2.86 0 0 0-3.5 1.91zm9.17 1.78a2.73 2.73 0 0 0 2 3.37 2.86 2.86 0 0 0 3.5-1.91 2.73 2.73 0 0 0-2-3.37 2.86 2.86 0 0 0-3.5 1.91zm8.47 1.48a2.73 2.73 0 0 0 2 3.37 2.86 2.86 0 0 0 3.5-1.91 2.73 2.73 0 0 0-2-3.37 2.86 2.86 0 0 0-3.5 1.91zm-42.01-3.38a2.73 2.73 0 0 0 2 3.37 2.86 2.86 0 0 0 3.5-1.91 2.73 2.73 0 0 0-2-3.37 2.86 2.86 0 0 0-3.5 1.91zm8.81 3.17a2.73 2.73 0 0 0 2 3.37 2.86 2.86 0 0 0 3.5-1.91 2.73 2.73 0 0 0-2-3.37 2.86 2.86 0 0 0-3.5 1.91zm9.12 2.79a2.73 2.73 0 0 0 2 3.37 2.86 2.86 0 0 0 3.5-1.91 2.73 2.73 0 0 0-2-3.37 2.86 2.86 0 0 0-3.5 1.91zm9.17 2.51a2.73 2.73 0 0 0 2 3.37 2.86 2.86 0 0 0 3.5-1.91 2.73 2.73 0 0 0-2-3.37 2.86 2.86 0 0 0-3.5 1.91zm8.85 2.21a2.73 2.73 0 0 0 2 3.37 2.86 2.86 0 0 0 3.5-1.91 2.73 2.73 0 0 0-2-3.37 2.86 2.86 0 0 0-3.5 1.91zM138 177a2.71 2.71 0 0 0 1.58 3.56 2.88 2.88 0 0 0 3.7-1.52 2.71 2.71 0 0 0-1.58-3.56A2.88 2.88 0 0 0 138 177zm0 7.7a2.71 2.71 0 0 0 1.58 3.56 2.88 2.88 0 0 0 3.7-1.52 2.71 2.71 0 0 0-1.58-3.56 2.88 2.88 0 0 0-3.7 1.52zm.41 8.03a2.71 2.71 0 0 0 1.58 3.56 2.88 2.88 0 0 0 3.7-1.52 2.71 2.71 0 0 0-1.58-3.56 2.88 2.88 0 0 0-3.7 1.52zm.38 8.04a2.71 2.71 0 0 0 1.58 3.56 2.88 2.88 0 0 0 3.7-1.52 2.71 2.71 0 0 0-1.58-3.56 2.88 2.88 0 0 0-3.7 1.52zm.76 7.67a2.71 2.71 0 0 0 1.58 3.56 2.88 2.88 0 0 0 3.7-1.52 2.71 2.71 0 0 0-1.58-3.56 2.88 2.88 0 0 0-3.7 1.52zm-10.23-29.22a2.71 2.71 0 0 0 1.58 3.56 2.88 2.88 0 0 0 3.7-1.52 2.71 2.71 0 0 0-1.6-3.56 2.88 2.88 0 0 0-3.68 1.52zm0 7.67a2.71 2.71 0 0 0 1.58 3.56 2.88 2.88 0 0 0 3.7-1.52 2.71 2.71 0 0 0-1.58-3.56 2.88 2.88 0 0 0-3.7 1.52zm.38 8.03a2.71 2.71 0 0 0 1.58 3.56A2.88 2.88 0 0 0 135 197a2.71 2.71 0 0 0-1.58-3.56 2.88 2.88 0 0 0-3.72 1.48zm0 7.31a2.71 2.71 0 0 0 1.58 3.56 2.88 2.88 0 0 0 3.7-1.52 2.71 2.71 0 0 0-1.58-3.56 2.88 2.88 0 0 0-3.7 1.52zm-.38 8.03a2.71 2.71 0 0 0 1.58 3.56 2.88 2.88 0 0 0 3.7-1.52 2.71 2.71 0 0 0-1.58-3.56 2.88 2.88 0 0 0-3.7 1.52zm-9.05-31.04a2.71 2.71 0 0 0 1.58 3.56 2.88 2.88 0 0 0 3.7-1.52 2.71 2.71 0 0 0-1.55-3.56 2.88 2.88 0 0 0-3.73 1.52zm-.42 7.67a2.71 2.71 0 0 0 1.58 3.56 2.88 2.88 0 0 0 3.7-1.52 2.71 2.71 0 0 0-1.58-3.56 2.88 2.88 0 0 0-3.7 1.52zm-.05 8.03a2.71 2.71 0 0 0 1.58 3.56 2.88 2.88 0 0 0 3.7-1.52 2.71 2.71 0 0 0-1.58-3.56 2.88 2.88 0 0 0-3.7 1.52zm0 7.31a2.71 2.71 0 0 0 1.58 3.56 2.88 2.88 0 0 0 3.7-1.52 2.71 2.71 0 0 0-1.58-3.56 2.88 2.88 0 0 0-3.7 1.52zm-.37 8.03a2.71 2.71 0 0 0 1.58 3.56 2.88 2.88 0 0 0 3.7-1.52 2.71 2.71 0 0 0-1.58-3.56 2.88 2.88 0 0 0-3.7 1.52zm27.36-28.77a2.71 2.71 0 0 0 1.58 3.56 2.88 2.88 0 0 0 3.7-1.52 2.71 2.71 0 0 0-1.58-3.56 2.88 2.88 0 0 0-3.7 1.52zm9.5 4.13a2.71 2.71 0 0 0 1.58 3.56 2.88 2.88 0 0 0 3.7-1.52 2.71 2.71 0 0 0-1.57-3.56 2.88 2.88 0 0 0-3.71 1.52zm1.14 8.76a2.71 2.71 0 0 0 1.58 3.56 2.88 2.88 0 0 0 3.7-1.52 2.71 2.71 0 0 0-1.58-3.56 2.88 2.88 0 0 0-3.7 1.52zm.76 8.04a2.71 2.71 0 0 0 1.58 3.56 2.88 2.88 0 0 0 3.7-1.52 2.71 2.71 0 0 0-1.58-3.56 2.88 2.88 0 0 0-3.7 1.52zM148 190a2.71 2.71 0 0 0 1.58 3.56 2.88 2.88 0 0 0 3.7-1.52 2.71 2.71 0 0 0-1.58-3.56A2.88 2.88 0 0 0 148 190zm.72 8.4a2.71 2.71 0 0 0 1.58 3.56 2.88 2.88 0 0 0 3.7-1.52 2.71 2.71 0 0 0-1.58-3.56 2.88 2.88 0 0 0-3.7 1.52zm.75 7.3a2.71 2.71 0 0 0 1.58 3.56 2.88 2.88 0 0 0 3.7-1.52 2.71 2.71 0 0 0-1.58-3.56 2.88 2.88 0 0 0-3.7 1.52zm16.4-16.97a2.71 2.71 0 0 0 1.58 3.56 2.88 2.88 0 0 0 3.7-1.52 2.71 2.71 0 0 0-1.58-3.56 2.88 2.88 0 0 0-3.7 1.52zm1.52 8.77a2.71 2.71 0 0 0 1.58 3.56 2.88 2.88 0 0 0 3.7-1.52 2.71 2.71 0 0 0-1.58-3.56 2.88 2.88 0 0 0-3.7 1.52zm7.02-5.99a2.71 2.71 0 0 0 1.58 3.56 2.88 2.88 0 0 0 3.7-1.52 2.71 2.71 0 0 0-1.59-3.55 2.88 2.88 0 0 0-3.69 1.51z" class="cls-6"/><ellipse cx="83.36" cy="142.19" class="cls-6" rx="2.84" ry="2.74"/><ellipse cx="75.41" cy="142.19" class="cls-6" rx="2.84" ry="2.74"/><ellipse cx="67.83" cy="142.19" class="cls-6" rx="2.84" ry="2.74"/><ellipse cx="59.5" cy="142.19" class="cls-6" rx="2.84" ry="2.74"/><ellipse cx="51.16" cy="142.19" class="cls-6" rx="2.84" ry="2.74"/><path d="M87.69 150a2.84 2.84 0 1 1-3-2.59 2.78 2.78 0 0 1 3 2.59zm-7.94.38a2.84 2.84 0 1 1-3-2.59 2.78 2.78 0 0 1 3 2.59zm-7.57.39a2.84 2.84 0 1 1-3-2.59 2.78 2.78 0 0 1 3 2.59zm-8.32.44a2.84 2.84 0 1 1-3-2.59 2.78 2.78 0 0 1 3 2.59zm-8.32.44a2.84 2.84 0 1 1-3-2.59 2.78 2.78 0 0 1 3 2.59zM91 157.4a2.77 2.77 0 0 1-2.52 3 2.82 2.82 0 0 1-3.11-2.4 2.77 2.77 0 0 1 2.52-3 2.82 2.82 0 0 1 3.11 2.4zm-7.89.82a2.77 2.77 0 0 1-2.52 3 2.82 2.82 0 0 1-3.13-2.43 2.77 2.77 0 0 1 2.52-3 2.82 2.82 0 0 1 3.13 2.43zm-8.29 1.15a2.77 2.77 0 0 1-2.52 3 2.82 2.82 0 0 1-3.13-2.37 2.77 2.77 0 0 1 2.52-3 2.82 2.82 0 0 1 3.13 2.37zm-7.91.86a2.77 2.77 0 0 1-2.52 3 2.82 2.82 0 0 1-3.13-2.43 2.77 2.77 0 0 1 2.52-3 2.82 2.82 0 0 1 3.13 2.43zm-8.66.49a2.77 2.77 0 0 1-2.52 3 2.82 2.82 0 0 1-3.13-2.43 2.77 2.77 0 0 1 2.52-3 2.82 2.82 0 0 1 3.13 2.43zm37.46 3.22a2.75 2.75 0 0 1-2.26 3.2 2.84 2.84 0 0 1-3.33-2.14 2.75 2.75 0 0 1 2.26-3.2 2.84 2.84 0 0 1 3.33 2.14zm-8.2 1.44a2.75 2.75 0 0 1-2.26 3.2 2.84 2.84 0 0 1-3.32-2.18 2.75 2.75 0 0 1 2.26-3.2 2.84 2.84 0 0 1 3.32 2.18zm-8.17 1.79a2.75 2.75 0 0 1-2.26 3.2 2.84 2.84 0 0 1-3.32-2.18A2.75 2.75 0 0 1 76 165a2.84 2.84 0 0 1 3.34 2.17zm-8.56 1.47a2.75 2.75 0 0 1-2.26 3.2 2.84 2.84 0 0 1-3.32-2.18 2.75 2.75 0 0 1 2.26-3.2 2.84 2.84 0 0 1 3.32 2.18zm-8.6 1.17a2.75 2.75 0 0 1-2.26 3.2 2.84 2.84 0 0 1-3.32-2.18 2.75 2.75 0 0 1 2.26-3.2 2.84 2.84 0 0 1 3.32 2.18zm39.6-.09a2.73 2.73 0 0 1-2 3.37 2.86 2.86 0 0 1-3.5-1.91 2.73 2.73 0 0 1 2-3.37 2.86 2.86 0 0 1 3.5 1.91zm-8.42 2.44a2.73 2.73 0 0 1-2 3.37 2.86 2.86 0 0 1-3.5-1.91 2.73 2.73 0 0 1 2-3.37 2.86 2.86 0 0 1 3.5 1.91zm-8.75 2.43a2.73 2.73 0 0 1-2 3.37 2.86 2.86 0 0 1-3.5-1.91 2.73 2.73 0 0 1 2-3.37 2.86 2.86 0 0 1 3.5 1.91zm-9.17 1.78a2.73 2.73 0 0 1-2 3.37 2.86 2.86 0 0 1-3.5-1.91 2.73 2.73 0 0 1 2-3.37 2.86 2.86 0 0 1 3.5 1.91zM67 177.85a2.73 2.73 0 0 1-2 3.37 2.86 2.86 0 0 1-3.5-1.91 2.73 2.73 0 0 1 2-3.37 2.86 2.86 0 0 1 3.5 1.91zm42-3.38a2.73 2.73 0 0 1-2 3.37 2.86 2.86 0 0 1-3.5-1.91 2.73 2.73 0 0 1 2-3.37 2.86 2.86 0 0 1 3.5 1.91zm-8.83 3.17a2.73 2.73 0 0 1-2 3.37 2.86 2.86 0 0 1-3.5-1.91 2.73 2.73 0 0 1 2-3.37 2.86 2.86 0 0 1 3.5 1.91zM91 180.43a2.73 2.73 0 0 1-2 3.37 2.86 2.86 0 0 1-3.5-1.91 2.73 2.73 0 0 1 2-3.37 2.86 2.86 0 0 1 3.5 1.91zm-9.12 2.51a2.73 2.73 0 0 1-2 3.37 2.86 2.86 0 0 1-3.5-1.91 2.73 2.73 0 0 1 2-3.37 2.86 2.86 0 0 1 3.5 1.91zM73 185.15a2.73 2.73 0 0 1-2 3.37 2.86 2.86 0 0 1-3.5-1.91 2.73 2.73 0 0 1 2-3.37 2.86 2.86 0 0 1 3.5 1.91zm43.47-8.15a2.71 2.71 0 0 1-1.58 3.56 2.88 2.88 0 0 1-3.7-1.52 2.71 2.71 0 0 1 1.58-3.56 2.88 2.88 0 0 1 3.7 1.52zm0 7.7a2.71 2.71 0 0 1-1.58 3.56 2.88 2.88 0 0 1-3.7-1.52 2.71 2.71 0 0 1 1.58-3.56 2.88 2.88 0 0 1 3.7 1.52zm-.38 8.03a2.71 2.71 0 0 1-1.58 3.56 2.88 2.88 0 0 1-3.7-1.52 2.71 2.71 0 0 1 1.58-3.56 2.88 2.88 0 0 1 3.7 1.52zm-.38 8.04a2.71 2.71 0 0 1-1.58 3.56 2.88 2.88 0 0 1-3.7-1.52 2.71 2.71 0 0 1 1.58-3.56 2.88 2.88 0 0 1 3.7 1.52zm-.71 7.67a2.71 2.71 0 0 1-1.58 3.56 2.88 2.88 0 0 1-3.7-1.52 2.71 2.71 0 0 1 1.58-3.56 2.88 2.88 0 0 1 3.7 1.52zm-7.29-26.95a2.71 2.71 0 0 1-1.58 3.56 2.88 2.88 0 0 1-3.7-1.52A2.71 2.71 0 0 1 104 180a2.88 2.88 0 0 1 3.71 1.49zm-9.5 4.13a2.71 2.71 0 0 1-1.58 3.56 2.88 2.88 0 0 1-3.7-1.52 2.71 2.71 0 0 1 1.58-3.56 2.88 2.88 0 0 1 3.7 1.52zm-1.14 8.76a2.71 2.71 0 0 1-1.58 3.56 2.88 2.88 0 0 1-3.7-1.52 2.71 2.71 0 0 1 1.58-3.56 2.88 2.88 0 0 1 3.7 1.52zm-.75 8.04a2.71 2.71 0 0 1-1.58 3.58 2.88 2.88 0 0 1-3.7-1.52 2.71 2.71 0 0 1 1.58-3.56 2.88 2.88 0 0 1 3.7 1.5zM106.54 190a2.71 2.71 0 0 1-1.58 3.56 2.88 2.88 0 0 1-3.7-1.52 2.71 2.71 0 0 1 1.58-3.56 2.88 2.88 0 0 1 3.7 1.52zm-.75 8.4a2.71 2.71 0 0 1-1.58 3.56 2.88 2.88 0 0 1-3.7-1.52 2.71 2.71 0 0 1 1.58-3.56 2.88 2.88 0 0 1 3.7 1.52zm-.79 7.3a2.71 2.71 0 0 1-1.58 3.56 2.88 2.88 0 0 1-3.7-1.52 2.71 2.71 0 0 1 1.58-3.56 2.88 2.88 0 0 1 3.7 1.52zm-16.37-16.97a2.71 2.71 0 0 1-1.58 3.56 2.88 2.88 0 0 1-3.7-1.52 2.71 2.71 0 0 1 1.58-3.56 2.88 2.88 0 0 1 3.7 1.52zm-1.52 8.77a2.71 2.71 0 0 1-1.58 3.56 2.88 2.88 0 0 1-3.7-1.52 2.71 2.71 0 0 1 1.59-3.54 2.88 2.88 0 0 1 3.69 1.5zm-7.02-5.99a2.71 2.71 0 0 1-1.58 3.56 2.88 2.88 0 0 1-3.7-1.52A2.71 2.71 0 0 1 76.4 190a2.88 2.88 0 0 1 3.69 1.51z" class="cls-6"/></g><text class="cls-7" transform="matrix(.15 -1.04 1 .15 31.68 119.05)">T</text><text class="cls-7" transform="matrix(.26 -1.02 .97 .25 32.91 110.82)">H</text><text class="cls-7" transform="matrix(.36 -1 .94 .35 35.52 100.94)">E</text><text class="cls-7" transform="matrix(.43 -.96 .92 .42 38.71 92.59)"></text><text class="cls-7" transform="matrix(.5 -.92 .88 .48 40.57 88.37)">C</text><text class="cls-7" transform="matrix(.6 -.86 .83 .57 45.22 79.96)">O</text><text class="cls-7" transform="matrix(.7 -.8 .76 .66 51.55 71.04)">N</text><text class="cls-7" transform="matrix(.78 -.7 .68 .74 58.87 62.95)">G</text><text class="cls-7" transform="matrix(.85 -.62 .6 .8 66.38 56.28)">R</text><text class="cls-7" transform="matrix(.9 -.54 .52 .86 74.3 50.62)">E</text><text class="cls-7" transform="matrix(.96 -.45 .44 .9 82.02 46.15)">S</text><text class="cls-7" transform="matrix(1 -.37 .36 .93 89.85 42.52)">S</text><text class="cls-7" transform="matrix(1.02 -.3 .3 .96 98.05 39.62)">I</text><text class="cls-7" transform="matrix(1.04 -.2 .2 .98 102.92 38.14)">O</text><text class="cls-7" transform="matrix(1.06 -.1 .1 1 113.76 36)">N</text><text class="cls-7" transform="matrix(1.06 .02 0 1 124.74 35.12)">A</text><text class="cls-7" transform="matrix(1.06 .12 -.1 1 134.7 35.41)">L</text><text class="cls-7" transform="matrix(1.05 .18 -.16 .98 142.67 36.38)"></text><text class="cls-7" transform="matrix(1.03 .27 -.24 .96 147.32 37.15)">D</text><text class="cls-7" transform="matrix(1 .35 -.32 .94 157.4 39.92)">I</text><text class="cls-7" transform="matrix(.98 .43 -.4 .9 162.29 41.56)">G</text><text class="cls-7" transform="matrix(.94 .5 -.47 .88 171.55 45.75)">I</text><text class="cls-7" transform="matrix(.9 .57 -.53 .84 176.11 48.17)">T</text><text class="cls-7" transform="matrix(.85 .64 -.6 .8 182.73 52.31)">A</text><text class="cls-7" transform="matrix(.8 .72 -.68 .73 190.63 58.42)">L</text><text class="cls-7" transform="matrix(.74 .77 -.73 .68 196.47 63.92)"></text><text class="cls-7" transform="matrix(.68 .82 -.77 .63 199.74 67.31)">S</text><text class="cls-7" transform="matrix(.6 .88 -.83 .55 205.23 74.07)">E</text><text class="cls-7" transform="matrix(.5 .94 -.88 .46 210.21 81.51)">R</text><text class="cls-7" transform="matrix(.4 .98 -.93 .37 214.74 90.08)">V</text><text class="cls-7" transform="matrix(.3 1 -.96 .28 218.25 98.88)">I</text><text class="cls-7" transform="matrix(.25 1.03 -.98 .22 219.83 103.73)">C</text><text class="cls-7" transform="matrix(.14 1.05 -1 .12 222.01 113.33)">E</text><text class="cls-8" transform="matrix(.14 1.04 -1 .12 25.44 148.75)">L</text><text class="cls-8" transform="matrix(.23 1.02 -.98 .2 26.57 156.6)">E</text><text class="cls-8" transform="matrix(.32 1 -.96 .3 28.61 165.19)">T</text><text class="cls-8" transform="matrix(.38 .98 -.94 .35 31.24 173)">’</text><text class="cls-8" transform="matrix(.45 .95 -.9 .4 32.77 176.91)">S</text><text class="cls-8" transform="matrix(.5 .92 -.88 .47 36.52 184.59)"></text><text class="cls-8" transform="matrix(.58 .88 -.84 .54 38.85 188.82)">A</text><text class="cls-8" transform="matrix(.67 .82 -.78 .62 44.39 197.04)">D</text><text class="cls-8" transform="matrix(.75 .74 -.7 .7 51.08 205.03)">D</text><text class="cls-8" transform="matrix(.8 .7 -.65 .75 58.46 212.08)"></text><text class="cls-8" transform="matrix(.85 .63 -.6 .8 62.13 215.21)">S</text><text class="cls-8" transform="matrix(.9 .55 -.5 .85 69.18 220.39)">O</text><text class="cls-8" transform="matrix(.96 .44 -.4 .9 78.67 226.04)">M</text><text class="cls-8" transform="matrix(1 .34 -.3 .94 90.14 231.08)">E</text><text class="cls-8" transform="matrix(1.02 .27 -.25 .96 98.52 233.8)"></text><text class="cls-8" transform="matrix(1.04 .2 -.2 .98 103.18 235.05)">S</text><text class="cls-8" transform="matrix(1.05 .12 -.1 1 111.67 236.67)">T</text><text class="cls-8" transform="matrix(1.05 .03 -.02 1 120 237.6)">R</text><text class="cls-8" transform="matrix(1.05 -.04 .05 1 129.63 237.76)">I</text><text class="cls-8" transform="matrix(1.05 -.1 .12 1 134.85 237.56)">P</text><text class="cls-8" transform="matrix(1.03 -.2 .2 .98 143.96 236.49)">E</text><text class="cls-8" transform="matrix(1 -.28 .3 .96 152.61 234.72)">S</text><text class="cls-8" transform="matrix(1 -.35 .35 .94 160.79 232.31)"></text><text class="cls-8" transform="matrix(.97 -.4 .4 .92 165.23 230.76)">T</text><text class="cls-8" transform="matrix(.92 -.5 .48 .88 172.74 227.57)">O</text><text class="cls-8" transform="matrix(.88 -.56 .55 .84 182.14 222.37)"></text><text class="cls-8" transform="matrix(.84 -.6 .6 .8 186.11 219.85)">Y</text><text class="cls-8" transform="matrix(.78 -.7 .67 .75 192.81 214.95)">O</text><text class="cls-8" transform="matrix(.7 -.77 .75 .68 200.84 207.71)">U</text><text class="cls-8" transform="matrix(.63 -.83 .8 .6 207.57 200.25)">R</text><text class="cls-8" transform="matrix(.57 -.87 .85 .55 213.16 192.59)"></text><text class="cls-8" transform="matrix(.5 -.9 .88 .5 215.73 188.63)">S</text><text class="cls-8" transform="matrix(.43 -.95 .92 .42 219.8 181.13)">T</text><text class="cls-8" transform="matrix(.34 -.98 .95 .34 222.92 174.12)">A</text><text class="cls-8" transform="matrix(.24 -1 .98 .24 226.05 164.85)">R</text><text class="cls-8" transform="matrix(.14 -1.03 1 .15 228.17 155.46)">S</text><use width="338" height="130" transform="matrix(.17 0 0 .17 97.92 122.68)" xlink:href="#Flag_2"/></g></g></svg>